<?xml version="1.0" standalone="no"?>
<!DOCTYPE svg PUBLIC "-//W3C//DTD SVG 20010904//EN"
 "http://www.w3.org/TR/2001/REC-SVG-20010904/DTD/svg10.dtd">
<svg version="1.0" xmlns="http://www.w3.org/2000/svg"
 width="694.000000pt" height="694.000000pt" viewBox="0 0 694.000000 694.000000"
 preserveAspectRatio="xMidYMid meet">
<metadata>
Created by potrace 1.14, written by Peter Selinger 2001-2017
</metadata>
<g transform="translate(0.000000,694.000000) scale(0.100000,-0.100000)"
fill="#000000" stroke="none">
<path d="M3410 5529 c-47 -11 -134 -31 -195 -44 -60 -12 -270 -57 -465 -100
-195 -42 -373 -80 -395 -85 -34 -7 -312 -66 -355 -75 -8 -2 -59 -13 -114 -25
-54 -12 -106 -23 -115 -25 -69 -13 -273 -58 -301 -65 -19 -5 -49 -11 -65 -14
-17 -3 -85 -17 -150 -31 -163 -36 -157 -34 -181 -39 -12 -2 -66 -14 -120 -26
-55 -12 -110 -24 -123 -26 -12 -3 -51 -11 -85 -19 -33 -8 -72 -16 -86 -19 -81
-16 -279 -58 -309 -66 -20 -5 -49 -11 -66 -14 -28 -5 -203 -43 -235 -51 -8 -2
-22 -4 -30 -4 -8 -1 17 -24 55 -52 39 -28 81 -59 95 -69 14 -10 59 -44 100
-74 41 -30 86 -64 100 -75 l26 -20 -1 -529 0 -529 -37 -35 c-21 -19 -39 -42
-39 -49 -1 -8 -3 -25 -4 -39 -4 -36 23 -84 57 -104 31 -19 32 -34 8 -116 -16
-54 -15 -55 55 -56 61 -1 65 0 61 20 -4 20 -22 93 -32 129 -3 10 -2 16 3 15
33 -9 83 58 83 113 0 35 -37 99 -57 99 -8 0 -11 130 -11 505 0 278 3 505 7
505 4 0 21 -11 37 -25 16 -14 32 -25 36 -25 4 0 13 -6 20 -13 7 -7 76 -58 153
-115 77 -56 151 -112 165 -125 l26 -22 -1 -197 c-2 -194 -2 -196 19 -192 12 2
35 7 51 9 17 3 37 8 45 10 8 2 26 6 40 9 14 2 99 20 190 39 91 20 181 39 200
42 19 3 51 10 70 15 19 5 49 12 66 14 17 3 107 22 200 42 93 19 180 38 194 40
14 2 39 7 55 11 17 4 35 8 40 9 6 1 35 7 65 13 30 6 65 13 78 16 13 2 31 6 40
9 9 3 28 7 42 10 41 7 420 85 495 102 39 9 81 18 95 20 14 3 57 11 95 20 39 8
79 16 90 18 11 3 108 23 215 46 223 47 195 48 484 -16 110 -25 307 -68 436
-95 129 -28 276 -60 325 -71 50 -10 131 -28 180 -39 50 -10 162 -35 250 -54
88 -20 169 -37 180 -39 11 -2 137 -29 280 -60 143 -31 323 -70 400 -87 77 -17
147 -32 156 -35 13 -4 15 19 15 192 -1 108 1 200 5 205 3 5 81 65 175 134 93
69 232 172 309 228 77 57 202 150 278 206 77 56 137 105 134 108 -5 4 -115 31
-197 47 -14 2 -68 14 -120 26 -52 12 -147 32 -210 46 -138 31 -160 36 -514
114 -154 34 -286 63 -295 65 -35 8 -347 77 -366 81 -11 3 -31 7 -44 10 -13 3
-54 12 -90 20 -36 8 -109 24 -161 35 -52 11 -104 23 -115 25 -11 3 -31 7 -45
10 -14 3 -106 23 -205 45 -99 23 -187 42 -196 44 -42 9 -579 126 -614 134 -86
21 -141 33 -160 37 -59 12 -98 11 -175 -7z"/>
<path d="M2200 3704 c-679 -139 -1236 -253 -1237 -254 -9 -1 -2 -610 7 -610 5
0 573 110 1262 245 l1253 245 1260 -245 c693 -135 1263 -245 1267 -245 4 0 8
137 8 304 0 282 -1 305 -17 310 -71 21 -2501 506 -2530 505 -21 -1 -594 -115
-1273 -255z"/>
<path d="M1186 2258 c-9 -5 -16 -6 -16 -3 0 3 -21 -5 -47 -20 -61 -33 -95 -81
-101 -145 -6 -64 1 -90 35 -127 37 -41 70 -56 187 -87 154 -41 190 -69 167
-128 -29 -77 -199 -84 -327 -14 l-40 22 -17 -40 c-23 -55 -22 -59 14 -80 99
-58 292 -72 379 -27 61 31 80 49 101 96 40 87 10 180 -71 222 -25 12 -89 34
-143 48 -54 14 -108 31 -121 36 -34 16 -50 51 -39 85 24 71 127 91 263 49 3
-1 18 -7 34 -14 16 -6 30 -10 31 -9 5 6 35 81 35 88 0 9 -64 36 -118 50 -50
13 -182 11 -206 -2z"/>
<path d="M1679 2262 c-13 -2 -15 -47 -15 -337 l0 -335 63 0 63 0 0 88 0 88 53
52 53 53 70 -83 c38 -46 71 -85 74 -88 3 -3 25 -29 49 -57 l43 -53 69 0 c38 0
69 3 69 6 0 3 -66 86 -146 186 l-146 180 43 46 c52 54 72 74 166 175 62 66 69
77 50 78 -12 1 -38 2 -57 3 -19 1 -43 -2 -53 -7 -15 -7 -85 -76 -291 -290
l-46 -48 0 173 0 173 -48 0 c-27 0 -55 -1 -63 -3z"/>
<path d="M2371 2260 c-4 -3 -7 -155 -7 -337 l0 -333 63 0 63 0 0 335 c0 184
-3 335 -7 336 -40 3 -106 3 -112 -1z"/>
<path d="M2680 2262 c-6 -2 -10 -125 -10 -338 l0 -334 238 0 238 0 1 50 c1 32
-3 50 -10 51 -7 1 -82 3 -167 4 -85 1 -160 3 -165 4 -6 1 -10 102 -10 282 l0
282 -53 1 c-28 1 -57 0 -62 -2z"/>
<path d="M3258 2261 c-11 -5 -13 -66 -13 -338 l0 -333 236 0 237 0 4 34 c8 72
10 71 -178 71 l-169 0 -3 283 c-2 215 -5 282 -15 283 -6 0 -28 2 -48 3 -20 1
-43 0 -51 -3z"/>
<path d="M3824 2259 c-3 -5 -6 -445 -4 -627 l0 -43 62 3 62 3 1 140 0 140 173
2 172 1 0 -144 0 -145 63 3 62 3 1 333 c0 268 -2 332 -13 333 -7 0 -26 1 -43
1 -77 0 -70 13 -70 -140 l0 -137 -167 1 c-93 1 -171 2 -174 3 -3 0 -5 62 -5
136 2 129 1 135 -19 136 -11 0 -37 2 -58 3 -21 1 -40 -1 -43 -5z"/>
<path d="M4607 2262 c-16 -3 -18 -20 -17 -230 1 -194 4 -232 20 -274 44 -116
126 -170 264 -174 103 -4 179 24 235 86 59 66 66 103 66 364 l0 230 -32 -1
c-18 -1 -45 -2 -61 -2 l-27 -1 0 -202 c1 -314 -20 -361 -170 -366 -65 -3 -121
28 -149 83 -18 36 -20 58 -21 256 0 120 -4 221 -8 225 -7 8 -71 11 -100 6z"/>
<path d="M5361 2260 c-4 -3 -8 -155 -7 -338 l0 -333 220 3 c208 3 224 4 274
27 126 57 139 225 25 300 -36 23 -37 24 -17 40 75 60 80 179 11 243 -52 47
-115 59 -318 61 -100 1 -184 0 -188 -3z m388 -116 c68 -40 45 -145 -34 -159
-39 -6 -225 -8 -231 -2 -7 6 -6 165 0 175 3 5 57 7 120 6 89 -2 123 -7 145
-20z m44 -292 c29 -27 39 -66 26 -101 -13 -33 -36 -49 -84 -56 -53 -9 -238
-10 -250 -3 -6 3 -9 46 -7 98 l3 91 144 -3 c134 -3 145 -5 168 -26z"/>
</g>
</svg>
