<svg width="208" height="204" viewBox="0 0 208 204" fill="none" xmlns="http://www.w3.org/2000/svg">
<g filter="url(#filter0_d_76_73)">
<path d="M88.4677 150.532C64.1908 142.715 42.9027 119.054 53.6615 85.6407C64.4202 52.2274 95.5144 45.4333 119.791 53.2502C133.278 57.5929 144.292 66.0371 150.91 77.0992C158.059 89.1966 159.332 103.436 154.597 118.141C149.862 132.846 140.548 143.58 127.684 149.234C115.855 154.356 101.868 154.846 88.4677 150.532Z" fill="url(#paint0_radial_76_73)"/>
<path d="M155.111 86.3938C157.339 95.3703 156.889 105.059 153.698 114.97C148.963 129.676 139.649 140.409 126.784 146.063C114.955 151.185 100.968 151.676 87.5681 147.361C71.8534 142.301 57.4323 130.599 52.0721 113.901C56.4869 132.282 71.7786 145.158 88.4679 150.532C101.868 154.846 115.855 154.356 127.684 149.234C140.548 143.58 149.863 132.846 154.598 118.141C158.167 107.055 158.319 96.2333 155.111 86.3938Z" fill="#EB8F00"/>
<path d="M99.1096 119.866C95.9945 118.863 93.0736 117.346 90.4775 115.358C87.2671 112.951 82.7236 113.61 80.3193 116.812C78.9589 118.621 78.5232 120.958 79.1381 123.135C81.0306 130.082 85.9389 135.12 93.4221 137.53C100.905 139.939 107.831 138.712 113.422 134.174C116.559 131.678 117.07 127.109 114.575 123.971C113.166 122.202 111.013 121.192 108.75 121.241C105.482 121.341 102.225 120.869 99.1096 119.866Z" fill="#422B0D"/>
<path opacity="0.8" d="M71.1789 116.538C79.5888 119.246 88.476 115.013 91.0292 107.084C93.5824 99.1549 88.8345 90.5317 80.4247 87.8238C72.0148 85.116 63.1275 89.3487 60.5744 97.278C58.0212 105.207 62.769 113.83 71.1789 116.538Z" fill="url(#paint1_radial_76_73)"/>
<path opacity="0.8" d="M123.735 133.461C132.144 136.169 141.032 131.936 143.585 124.007C146.138 116.077 141.39 107.454 132.98 104.746C124.57 102.038 115.683 106.271 113.13 114.201C110.577 122.13 115.325 130.753 123.735 133.461Z" fill="url(#paint2_radial_76_73)"/>
<path d="M150.4 89.3907C143.904 85.0805 136.777 89.2296 136.777 89.2296C136.777 89.2296 138.3 82.4118 132.861 78.3653C126.344 73.4915 117.32 75.0034 113.516 85.2357C109.186 96.8927 119.833 117.454 119.833 117.454C119.833 117.454 140.936 118.486 150.86 109.466C158.937 102.127 155.316 92.6447 150.4 89.3907Z" fill="#F44336"/>
<path d="M150.401 89.3908C149.597 88.8729 148.726 88.4771 147.816 88.2031C149.822 90.741 151.079 93.7867 151.438 96.9948C151.715 100.34 150.81 104.254 147.013 108.054C138.772 116.32 121.233 117.434 119.964 117.496C121.511 117.552 141.344 118.176 150.887 109.504C158.938 102.127 155.317 92.6448 150.401 89.3908Z" fill="#C62828"/>
<path d="M136.424 90.2972C136.663 89.3754 136.815 88.4256 136.892 87.4709C137.211 84.7502 136.342 82.0214 134.503 79.979C133.245 78.5754 131.716 77.4491 130.011 76.66C130.011 76.66 132.366 78.2924 133.066 82.503C133.403 84.7053 133.302 86.9584 132.76 89.1176C132.502 89.8892 132.398 90.6911 132.444 91.503C132.524 92.326 133.153 92.999 133.975 93.1293C135.265 93.2086 136.005 91.8047 136.424 90.2972Z" fill="#C62828"/>
<path d="M120.844 80.6998C123.121 79.205 126.412 78.1422 128.398 80.741C129.45 82.1265 128.602 84.8208 126.551 85.4952C123.087 86.6465 122.523 87.9532 121.845 88.9835C121.028 90.209 120.266 91.7403 118.821 92.0239C117.375 92.3076 116.515 91.2815 116.496 89.1337C116.374 85.7526 118.018 82.5558 120.844 80.6998Z" fill="#FF847A"/>
<path d="M93.8392 65.6087C86.0455 65.6249 82.4124 73.031 82.4124 73.031C82.4124 73.031 79.9168 66.4654 73.1083 66.1362C65.0006 65.696 58.3261 71.9595 60.7994 82.5611C63.6994 94.731 83.9547 105.911 83.9547 105.911C83.9547 105.911 102.088 95.0778 105.355 82.07C108.007 71.4766 99.7307 65.5946 93.8392 65.6087Z" fill="#F44336"/>
<path d="M93.8396 65.6086C92.8885 65.6097 91.933 65.7438 91.0134 66.0047C94.0909 67.0053 96.8214 68.8448 98.9051 71.3212C101.007 73.9188 102.408 77.7117 101.361 82.9926C99.0842 94.4465 85.0943 105.087 84.0325 105.849C85.357 105.046 102.205 94.5677 105.349 82.0584C108.007 71.4765 99.7311 65.5945 93.8396 65.6086Z" fill="#C62828"/>
<path d="M82.7182 74.1379C82.4169 73.2245 82.0263 72.3497 81.5438 71.5221C80.316 69.0716 78.1033 67.2643 75.4568 66.5658C73.6394 66.0959 71.7419 65.9939 69.8803 66.2876C69.8803 66.2876 72.7457 66.3363 75.657 69.4634C77.1658 71.1304 78.3133 73.0845 79.052 75.2046C79.2595 75.9917 79.6197 76.7223 80.112 77.3706C80.636 78.0099 81.5313 78.2117 82.2852 77.8687C83.3623 77.1783 83.2045 75.6101 82.7182 74.1379Z" fill="#C62828"/>
<path d="M64.4496 74.8051C64.7197 74.0854 65.0828 73.4052 65.5244 72.7791C66.3519 71.4321 67.7768 70.5561 69.348 70.4185C70.8138 70.4295 72.5633 71.3194 72.8481 72.8804C73.1023 74.2683 72.1816 75.5469 71.4133 76.74C70.6181 78.1358 69.951 79.6112 69.4231 81.1314C69.0283 82.3872 67.6999 83.0831 66.4413 82.697C65.2579 82.316 64.6662 80.9922 64.3214 79.7961C63.8306 78.1591 63.8734 76.4154 64.4496 74.8051Z" fill="#FF847A"/>
</g>
<defs>
<filter id="filter0_d_76_73" x="0.796875" y="0.312256" width="206.607" height="203.141" filterUnits="userSpaceOnUse" color-interpolation-filters="sRGB">
<feFlood flood-opacity="0" result="BackgroundImageFix"/>
<feColorMatrix in="SourceAlpha" type="matrix" values="0 0 0 0 0 0 0 0 0 0 0 0 0 0 0 0 0 0 127 0" result="hardAlpha"/>
<feOffset/>
<feGaussianBlur stdDeviation="25"/>
<feComposite in2="hardAlpha" operator="out"/>
<feColorMatrix type="matrix" values="0 0 0 0 0 0 0 0 0 0 0 0 0 0 0 0 0 0 0.33 0"/>
<feBlend mode="normal" in2="BackgroundImageFix" result="effect1_dropShadow_76_73"/>
<feBlend mode="normal" in="SourceGraphic" in2="effect1_dropShadow_76_73" result="shape"/>
</filter>
<radialGradient id="paint0_radial_76_73" cx="0" cy="0" r="1" gradientUnits="userSpaceOnUse" gradientTransform="translate(104.129 101.891) rotate(17.848) scale(52.0687 52.0687)">
<stop offset="0.5" stop-color="#FDE030"/>
<stop offset="0.92" stop-color="#F7C02B"/>
<stop offset="1" stop-color="#F4A223"/>
</radialGradient>
<radialGradient id="paint1_radial_76_73" cx="0" cy="0" r="1" gradientUnits="userSpaceOnUse" gradientTransform="translate(77.9282 95.5772) rotate(17.848) scale(17.4342 15.6552)">
<stop stop-color="#ED7770"/>
<stop offset="0.9" stop-color="#ED7770" stop-opacity="0"/>
</radialGradient>
<radialGradient id="paint2_radial_76_73" cx="0" cy="0" r="1" gradientUnits="userSpaceOnUse" gradientTransform="translate(-534.625 2263.19) rotate(17.848) scale(17.789 17.789)">
<stop stop-color="#ED7770"/>
<stop offset="0.9" stop-color="#ED7770" stop-opacity="0"/>
</radialGradient>
</defs>
</svg>
