<svg width="86" height="50" viewBox="0 0 191 110" fill="none" xmlns="http://www.w3.org/2000/svg">
<path d="M34.736 109.561C33.288 109.561 31.901 109.358 30.576 108.952C29.252 108.528 28.201 107.989 27.423 107.335L28.616 104.659C29.358 105.242 30.276 105.728 31.371 106.117C32.466 106.505 33.588 106.699 34.736 106.699C35.708 106.699 36.494 106.594 37.094 106.382C37.695 106.17 38.137 105.887 38.419 105.534C38.702 105.163 38.843 104.748 38.843 104.288C38.843 103.723 38.64 103.273 38.234 102.937C37.827 102.584 37.298 102.31 36.644 102.116C36.008 101.904 35.293 101.709 34.498 101.533C33.721 101.356 32.935 101.153 32.14 100.923C31.362 100.676 30.647 100.367 29.993 99.996C29.358 99.607 28.836 99.095 28.43 98.459C28.024 97.823 27.821 97.011 27.821 96.022C27.821 95.015 28.086 94.096 28.616 93.266C29.163 92.418 29.985 91.747 31.08 91.252C32.193 90.74 33.597 90.484 35.293 90.484C36.405 90.484 37.509 90.625 38.605 90.908C39.7 91.19 40.654 91.597 41.466 92.127L40.38 94.803C39.55 94.308 38.693 93.946 37.81 93.716C36.927 93.469 36.079 93.346 35.266 93.346C34.312 93.346 33.535 93.46 32.935 93.69C32.352 93.92 31.919 94.22 31.636 94.591C31.371 94.962 31.239 95.386 31.239 95.863C31.239 96.428 31.433 96.887 31.822 97.24C32.228 97.576 32.749 97.841 33.385 98.035C34.039 98.23 34.763 98.424 35.558 98.618C36.352 98.795 37.139 98.998 37.916 99.228C38.711 99.457 39.426 99.758 40.062 100.128C40.716 100.499 41.237 101.003 41.625 101.639C42.031 102.275 42.235 103.078 42.235 104.05C42.235 105.039 41.961 105.958 41.413 106.805C40.883 107.636 40.062 108.307 38.949 108.819C37.836 109.314 36.432 109.561 34.736 109.561Z" fill="black"/>
<path d="M48.724 104.924L48.538 100.844L58.262 90.749H62.131L54.049 99.334L52.142 101.427L48.724 104.924ZM45.65 109.296V90.749H49.095V109.296H45.65ZM58.58 109.296L51.479 100.844L53.758 98.327L62.608 109.296H58.58Z" fill="black"/>
<path d="M64.953 109.296V90.749H68.397V109.296H64.953Z" fill="black"/>
<path d="M73.414 109.296V90.749H76.858V106.382H86.556V109.296H73.414Z" fill="black"/>
<path d="M89.275 109.296V90.749H92.72V106.382H102.417V109.296H89.275Z" fill="black"/>
<path d="M118.173 90.749H121.617V109.296H118.173V90.749ZM108.581 109.296H105.137V90.749H108.581V109.296ZM118.438 101.347H108.29V98.406H118.438V101.347Z" fill="black"/>
<path d="M134.562 109.561C132.019 109.561 130.023 108.846 128.574 107.415C127.144 105.984 126.428 103.917 126.428 101.215V90.749H129.873V101.082C129.873 102.99 130.279 104.377 131.091 105.242C131.922 106.108 133.087 106.541 134.589 106.541C136.09 106.541 137.247 106.108 138.06 105.242C138.872 104.377 139.279 102.99 139.279 101.082V90.749H142.67V101.215C142.67 103.917 141.946 105.984 140.498 107.415C139.067 108.846 137.088 109.561 134.562 109.561Z" fill="black"/>
<path d="M147.494 109.296V90.749H156.185C158.41 90.749 160.106 91.19 161.272 92.074C162.438 92.939 163.021 94.105 163.021 95.571C163.021 96.56 162.791 97.408 162.332 98.115C161.873 98.804 161.254 99.342 160.477 99.731C159.718 100.102 158.887 100.287 157.987 100.287L158.463 99.334C159.506 99.334 160.442 99.528 161.272 99.917C162.102 100.287 162.756 100.835 163.233 101.559C163.727 102.283 163.975 103.184 163.975 104.262C163.975 105.852 163.365 107.088 162.146 107.971C160.928 108.854 159.117 109.296 156.715 109.296H147.494ZM150.939 106.594H156.503C157.792 106.594 158.781 106.382 159.47 105.958C160.159 105.534 160.504 104.854 160.504 103.917C160.504 102.999 160.159 102.328 159.47 101.904C158.781 101.462 157.792 101.241 156.503 101.241H150.674V98.565H155.814C157.015 98.565 157.934 98.353 158.569 97.929C159.223 97.505 159.55 96.869 159.55 96.022C159.55 95.156 159.223 94.511 158.569 94.087C157.934 93.663 157.015 93.451 155.814 93.451H150.939V106.594Z" fill="black"/>
<path d="M95.884 43.866L26.397 58.035V74.728L95.884 61.141L165.76 74.728V58.035L95.884 43.866Z" fill="white"/>
<path d="M0 20.768L25.233 39.402V50.465L96.855 35.52L165.759 50.465V39.402L190.992 20.768L96.855 0L0 20.768Z" fill="black"/>
<path d="M10.676 58.812V28.338L13.005 27.562V60.559H10.676V58.812Z" fill="black"/>
<path d="M11.646 64.6347C13.4683 64.6347 14.9456 63.1573 14.9456 61.335C14.9456 59.5126 13.4683 58.0353 11.646 58.0353C9.82363 58.0353 8.34631 59.5126 8.34631 61.335C8.34631 63.1573 9.82363 64.6347 11.646 64.6347Z" fill="black"/>
<path d="M9.89899 68.904L10.87 64.44H12.422L13.587 68.904H9.89899Z" fill="black"/>
</svg>
