<svg width="250" height="251" viewBox="0 0 250 251" fill="none" xmlns="http://www.w3.org/2000/svg">
<g filter="url(#filter0_d_76_43)">
<path d="M136.149 187.21C102.341 194.094 61.5486 180.315 52.0741 133.783C42.5995 87.2505 74.7561 58.6178 108.565 51.734C127.347 47.9096 145.934 50.5614 161.073 59.2156C177.525 68.7382 188.47 84.6827 192.64 105.162C196.81 125.641 192.946 144.474 181.527 159.672C170.977 173.556 154.811 183.411 136.149 187.21Z" fill="url(#paint0_radial_76_43)"/>
<path d="M172.19 67.3891C180.77 76.4952 186.666 88.2179 189.476 102.02C193.646 122.499 189.782 141.332 178.363 156.53C167.813 170.415 151.647 180.269 132.985 184.069C111.101 188.525 86.3362 184.291 68.9421 168.158C86.338 186.903 112.907 191.943 136.149 187.21C154.81 183.411 170.977 173.557 181.527 159.672C192.946 144.474 196.809 125.641 192.64 105.162C189.496 89.7238 182.498 76.8627 172.19 67.3891Z" fill="#EB8F00"/>
<path d="M136.149 187.21C102.341 194.094 61.5486 180.315 52.0741 133.783C42.5995 87.2505 74.7561 58.6178 108.565 51.734C127.347 47.9096 145.934 50.5614 161.073 59.2156C177.525 68.7382 188.47 84.6827 192.64 105.162C196.81 125.641 192.946 144.474 181.527 159.672C170.977 173.556 154.811 183.411 136.149 187.21Z" fill="url(#paint1_linear_76_43)"/>
<path d="M136.149 187.21C102.341 194.094 61.5486 180.315 52.0741 133.783C42.5995 87.2505 74.7561 58.6178 108.565 51.734C127.347 47.9096 145.934 50.5614 161.073 59.2156C177.525 68.7382 188.47 84.6827 192.64 105.162C196.81 125.641 192.946 144.474 181.527 159.672C170.977 173.556 154.811 183.411 136.149 187.21Z" fill="url(#paint2_linear_76_43)"/>
<path d="M172.19 67.3891C180.77 76.4952 186.666 88.2179 189.476 102.02C193.646 122.499 189.782 141.332 178.363 156.53C167.813 170.415 151.647 180.269 132.985 184.069C111.101 188.525 86.3362 184.291 68.9421 168.158C86.338 186.903 112.907 191.943 136.149 187.21C154.81 183.411 170.977 173.557 181.527 159.672C192.946 144.474 196.809 125.641 192.64 105.162C189.496 89.7238 182.498 76.8627 172.19 67.3891Z" fill="#EB8F00"/>
<path d="M134.396 176.121C127.091 177.558 119.988 172.858 118.455 165.573L115.346 150.304C113.855 142.985 118.575 135.853 125.894 134.363C133.213 132.873 140.345 137.592 141.835 144.911L144.946 160.191C146.383 167.496 141.681 174.587 134.396 176.121Z" fill="#422B0D"/>
<path d="M92.5446 98.939C95.0166 98.4357 97.5857 98.6572 99.9413 99.5657C107.657 102.5 112.596 112.133 109.232 123.81C106.907 131.856 101.871 136.377 96.4545 137.48C93.9824 137.983 91.4133 137.762 89.0577 136.853C81.3424 133.919 76.4027 124.286 79.7672 112.608C82.0918 104.563 87.1158 100.044 92.5446 98.939Z" fill="white"/>
<path opacity="0.66" d="M191.908 118.057C190.002 117.183 189.934 115.796 185.706 118.588C183.962 119.751 182.669 124.557 182.669 124.557C182.669 124.557 178.048 118.658 173.332 128.717C164.756 146.97 159.446 147.294 153.983 155.979C150.459 161.543 147.496 166.765 150.781 175.271C152.618 180.02 155.231 180.889 155.231 180.889C155.231 180.889 156.661 180.598 169.213 170.47C181.765 160.343 191.921 147.56 195.303 129.708" fill="url(#paint3_linear_76_43)"/>
<path d="M160.645 157.891C165.102 152.819 169.443 148.111 171.199 144.46C172.954 140.809 174.186 133.655 174.853 129.001C175.521 124.347 179.597 121.308 182.776 124.523C183.608 125.388 183.896 129.343 184.064 130.848C184.938 128.386 185.38 125.785 185.378 123.173C185.386 117.012 191.176 113.839 193.885 121.567C193.885 121.567 198.515 120.813 199.381 135.478C199.493 141.235 198.759 146.988 197.172 152.523C193.148 166.165 189.196 172.914 183.502 178.793C174.595 187.977 164.449 188.288 160.564 184.889C153.92 179.036 152.878 166.729 160.645 157.891Z" fill="url(#paint4_radial_76_43)"/>
<path d="M182.727 124.533C183.208 126.896 182.605 135.587 182.174 137.871C180.797 146.292 176.12 151.03 177.887 151.957C179.653 152.885 182.014 149.666 184.174 138.89C184.77 135.248 184.798 131.544 184.233 127.899C183.971 126.677 183.46 125.532 182.727 124.533Z" fill="#ED6C30"/>
<path d="M189.482 116.923C191.156 117.276 194.34 121.196 193.412 134.182C193.182 143.896 187.6 152.554 189.461 153.021C191.735 153.959 194.761 145.455 195.86 134.302C196.062 130.955 195.934 127.598 195.449 124.29C195.162 122.632 193.354 116.602 189.482 116.923Z" fill="#ED6C30"/>
<path opacity="0.66" d="M58.1164 145.299C59.5298 143.749 59.05 142.446 64.0322 143.362C66.0926 143.75 69.162 147.668 69.162 147.668C69.162 147.668 71.1086 140.432 79.3827 147.846C94.4126 161.293 99.4267 159.515 107.851 165.372C113.257 169.117 118.026 172.765 118.329 181.878C118.507 186.966 116.442 188.787 116.442 188.787C116.442 188.787 114.115 189.261 101.795 185.838C100.739 185.548 100.723 185.034 99.5019 184.677C83.9892 180.263 69.6434 172.47 59.5504 157.362" fill="url(#paint5_linear_76_43)"/>
<path d="M102.467 169.737C96.3818 166.811 90.5447 164.176 87.5015 161.502C84.4582 158.827 80.5275 152.724 78.081 148.705C75.6345 144.685 70.707 143.479 69.0991 147.669C68.6713 148.791 69.9527 152.543 70.387 153.994C68.6075 152.072 67.1592 149.856 66.1274 147.453C63.7116 141.787 57.1417 141.13 57.6696 149.302C57.6696 149.302 53.114 150.419 58.0514 164.255C60.1993 169.597 63.1246 174.605 66.7489 179.079C75.775 190.063 82.0629 194.727 89.602 197.912C101.379 202.884 110.84 199.204 113.098 194.554C116.888 186.576 113.071 174.834 102.467 169.737Z" fill="url(#paint6_radial_76_43)"/>
<path d="M69.0992 147.669C69.5803 150.032 73.5337 157.796 74.8234 159.729C79.3837 166.941 85.5284 169.475 84.2775 171.017C83.0265 172.559 79.5707 170.524 73.3694 161.451C71.3965 158.332 69.9344 154.932 69.0295 151.355C68.7803 150.131 68.8026 148.878 69.0992 147.669Z" fill="#ED6C30"/>
<path d="M59.8946 143.308C58.5034 144.286 57.1064 149.139 63.0326 160.704C67.0432 169.554 75.5662 175.34 74.0351 176.498C72.3095 178.25 66.199 171.606 60.8269 161.771C59.3322 158.769 58.1378 155.63 57.2899 152.395C56.9108 150.781 56.2173 144.524 59.8946 143.308Z" fill="#ED6C30"/>
<path d="M109.407 123.863C109.154 127.208 108.081 130.431 106.272 133.26C104.32 136.32 101.396 138.632 97.9807 139.832C94.3084 141.072 90.2914 140.868 86.762 139.277C83.2835 137.688 80.3737 135.05 78.4512 131.744C77.9973 130.94 77.5869 130.102 77.2347 129.24C76.897 128.388 76.6054 127.513 76.3622 126.629L75.9937 125.252L75.7828 123.907C75.6391 123.015 75.5584 122.123 75.5504 121.216C75.5359 117.736 76.2078 114.28 77.5208 111.059C78.7609 107.791 80.7662 104.871 83.3555 102.526C85.8746 100.209 89.1513 98.8854 92.5779 98.7934L92.6495 99.1449C89.596 99.8297 86.8272 101.479 84.7715 103.841C82.7255 106.188 81.2072 108.958 80.3129 111.942C79.3361 114.892 78.9054 117.983 79.0205 121.09C79.1719 124.189 80.0506 127.203 81.5951 129.892C83.1033 132.588 85.4028 134.77 88.1892 136.121C90.9831 137.509 94.1904 137.827 97.2046 137.012C100.19 136.177 102.849 134.424 104.793 132.009C106.759 129.577 108.209 126.782 109.059 123.77L109.407 123.863Z" fill="#EB8F00"/>
<path d="M142.857 88.6947C148.286 87.5893 154.685 89.8202 159.962 96.2797C167.639 105.658 166.845 116.509 160.892 122.227C159.081 123.996 156.803 125.205 154.331 125.708C148.915 126.811 142.504 124.582 137.226 118.123C129.511 108.74 130.341 97.8814 136.295 92.1638C138.107 90.4064 140.385 89.198 142.857 88.6947Z" fill="white"/>
<path d="M142.82 88.513C146.01 87.2577 149.543 87.1946 152.768 88.3426C156.068 89.488 159.055 91.3912 161.475 93.9148C163.962 96.3993 165.937 99.3416 167.279 102.589C167.614 103.43 167.901 104.28 168.118 105.157L168.389 106.49L168.663 107.835C168.958 109.655 168.984 111.518 168.752 113.357C168.276 117.152 166.639 120.703 164.046 123.528C161.422 126.384 157.815 128.128 153.95 128.423C150.303 128.674 146.684 127.694 143.677 125.631C140.908 123.747 138.648 121.203 137.12 118.22L137.4 117.987C139.346 120.417 141.764 122.436 144.515 123.921C147.263 125.393 150.396 125.967 153.482 125.565C156.575 125.138 159.402 123.59 161.431 121.221C163.453 118.878 164.719 115.983 165.052 112.912C165.422 109.833 165.053 106.715 163.98 103.804C162.896 100.895 161.298 98.1911 159.255 95.8433C157.265 93.4467 154.785 91.4909 151.984 90.1303C149.168 88.7601 145.975 88.325 142.897 88.8886L142.82 88.513Z" fill="#EB8F00"/>
</g>
<defs>
<filter id="filter0_d_76_43" x="0.392578" y="0.027771" width="248.999" height="250.257" filterUnits="userSpaceOnUse" color-interpolation-filters="sRGB">
<feFlood flood-opacity="0" result="BackgroundImageFix"/>
<feColorMatrix in="SourceAlpha" type="matrix" values="0 0 0 0 0 0 0 0 0 0 0 0 0 0 0 0 0 0 127 0" result="hardAlpha"/>
<feOffset/>
<feGaussianBlur stdDeviation="25"/>
<feComposite in2="hardAlpha" operator="out"/>
<feColorMatrix type="matrix" values="0 0 0 0 0 0 0 0 0 0 0 0 0 0 0 0 0 0 0.33 0"/>
<feBlend mode="normal" in2="BackgroundImageFix" result="effect1_dropShadow_76_43"/>
<feBlend mode="normal" in="SourceGraphic" in2="effect1_dropShadow_76_43" result="shape"/>
</filter>
<radialGradient id="paint0_radial_76_43" cx="0" cy="0" r="1" gradientUnits="userSpaceOnUse" gradientTransform="translate(122.357 119.472) rotate(-11.5088) scale(70.4385 70.4385)">
<stop offset="0.5" stop-color="#FDE030"/>
<stop offset="0.92" stop-color="#F7C02B"/>
<stop offset="1" stop-color="#F4A223"/>
</radialGradient>
<linearGradient id="paint1_linear_76_43" x1="136.149" y1="187.21" x2="108.565" y2="51.734" gradientUnits="userSpaceOnUse">
<stop offset="0.39" stop-color="#40C0E7" stop-opacity="0"/>
<stop offset="1" stop-color="#5F7AFF"/>
</linearGradient>
<linearGradient id="paint2_linear_76_43" x1="136.149" y1="187.21" x2="108.565" y2="51.734" gradientUnits="userSpaceOnUse">
<stop offset="0.16" stop-color="#F4A223"/>
<stop offset="0.33" stop-color="#F7C02B"/>
<stop offset="0.81" stop-color="#FDE030" stop-opacity="0"/>
</linearGradient>
<linearGradient id="paint3_linear_76_43" x1="180.424" y1="189.579" x2="168.162" y2="129.353" gradientUnits="userSpaceOnUse">
<stop stop-color="#ED6C30"/>
<stop offset="1" stop-color="#ED6C30" stop-opacity="0.2"/>
</linearGradient>
<radialGradient id="paint4_radial_76_43" cx="0" cy="0" r="1" gradientUnits="userSpaceOnUse" gradientTransform="translate(163.909 150.616) rotate(130.011) scale(55.2755 50.9439)">
<stop offset="0.27" stop-color="#FFF176"/>
<stop offset="1" stop-color="#FFC400"/>
</radialGradient>
<linearGradient id="paint5_linear_76_43" x1="96.6463" y1="206.637" x2="84.3837" y2="146.412" gradientUnits="userSpaceOnUse">
<stop stop-color="#ED6C30"/>
<stop offset="1" stop-color="#ED6C30" stop-opacity="0.2"/>
</linearGradient>
<radialGradient id="paint6_radial_76_43" cx="0" cy="0" r="1" gradientUnits="userSpaceOnUse" gradientTransform="translate(96.5385 164.239) rotate(26.9714) scale(55.2755 50.9439)">
<stop offset="0.27" stop-color="#FFF176"/>
<stop offset="1" stop-color="#FFC400"/>
</radialGradient>
</defs>
</svg>
